<svg id="Layer_1" data-name="Layer 1" xmlns="http://www.w3.org/2000/svg" xmlns:xlink="http://www.w3.org/1999/xlink" viewBox="0 0 955.19 187.8"><defs><style>.cls-1{fill:none;}.cls-2{fill:url(#radial-gradient);}.cls-3,.cls-4{fill:#fff;}.cls-4,.cls-6{fill-rule:evenodd;}.cls-5{clip-path:url(#clip-path);}.cls-6{fill:url(#linear-gradient);}.cls-7{clip-path:url(#clip-path-2);}.cls-8{fill:url(#radial-gradient-2);}</style><radialGradient id="radial-gradient" cx="-633.02" cy="971.11" fx="-794.5991558287237" fy="678.0474576805859" r="1200.01" gradientTransform="translate(719.52 -612.8) scale(0.86 0.85)" gradientUnits="userSpaceOnUse"><stop offset="0" stop-color="#2bc3d2"/><stop offset="0.2" stop-color="#55d555"/><stop offset="0.4" stop-color="#fc008e"/><stop offset="0.6" stop-color="#ff191e"/><stop offset="0.8" stop-color="#ffe727"/><stop offset="1" stop-color="#009e51"/></radialGradient><clipPath id="clip-path" transform="translate(-53.78 -61.43)"><rect id="SVGID" class="cls-1" x="53.78" y="82.54" width="125.34" height="125.34" rx="34.99"/></clipPath><linearGradient id="linear-gradient" x1="122.45" y1="149.24" x2="184.85" y2="248.89" gradientUnits="userSpaceOnUse"><stop offset="0" stop-color="#2bc383"/><stop offset="1" stop-color="#009e7c"/></linearGradient><clipPath id="clip-path-2" transform="translate(-53.78 -61.43)"><path id="SVGID-2" data-name="SVGID" class="cls-1" d="M271.77,195.57a43.3,43.3,0,0,1-8.25,2,100.4,100.4,0,0,1-14.45.8,20.83,20.83,0,0,1-8.67-1.82,22,22,0,0,1-7-4.93,24.32,24.32,0,0,1-4.72-7.26,22.48,22.48,0,0,1-1.76-8.93l-.14-35H212.13V121.52H226.8V98h21.14v23.52h17.48l-4.08,18.87h-13.4v30.5a8.07,8.07,0,0,0,2.33,5.44,7.26,7.26,0,0,0,5.43,2.25c3.66,0,6.32-.41,8-1.23s2.84-1.43,3.6-1.82Zm43-77a38.59,38.59,0,0,1,15.72,3.2A39.33,39.33,0,0,1,343,130.45a40.25,40.25,0,0,1,8.32,12.7,39.55,39.55,0,0,1,3,15.39c0,1.07-.05,2.18-.14,3.34s-.23,2.28-.42,3.34h-57.1a21.09,21.09,0,0,0,6.42,9.41,17.18,17.18,0,0,0,11.63,4,25.69,25.69,0,0,0,9.94-2,17.58,17.58,0,0,0,7.4-5.37L349.17,182a35.84,35.84,0,0,1-6.63,6.8,43.11,43.11,0,0,1-8.32,5.12,48.61,48.61,0,0,1-9.44,3.29,43.27,43.27,0,0,1-10,1.17,40.39,40.39,0,0,1-15.86-3.12,39.62,39.62,0,0,1-12.83-8.57,40.94,40.94,0,0,1-8.6-12.71,39.08,39.08,0,0,1,.07-31,40.36,40.36,0,0,1,8.74-12.7,41.36,41.36,0,0,1,12.83-8.49A39.51,39.51,0,0,1,314.77,118.61Zm0,19.75A16.91,16.91,0,0,0,304,141.85a22.4,22.4,0,0,0-6.69,8.42h35a21,21,0,0,0-6.63-8.42A17.18,17.18,0,0,0,314.77,138.36ZM437,182.24A36.39,36.39,0,0,1,422.33,194a47.6,47.6,0,0,1-20.3,4.32,36.08,36.08,0,0,1-14.79-3.12A38.66,38.66,0,0,1,375,186.64a42.4,42.4,0,0,1-8.41-12.71,38.18,38.18,0,0,1-3.15-15.39,40.86,40.86,0,0,1,3-15.61A38.95,38.95,0,0,1,387,121.74,36.75,36.75,0,0,1,402,118.61a46.8,46.8,0,0,1,20.23,4.29,37.22,37.22,0,0,1,14.45,11.54l-16.77,11.91a16.86,16.86,0,0,0-6.84-5.81A25.07,25.07,0,0,0,402,138.36a15.08,15.08,0,0,0-6.84,1.59,18.22,18.22,0,0,0-5.56,4.34,20.15,20.15,0,0,0-3.74,6.44,22.58,22.58,0,0,0-1.34,7.74A20.49,20.49,0,0,0,386,166a21.41,21.41,0,0,0,3.88,6.44,19.39,19.39,0,0,0,5.64,4.49,13.91,13.91,0,0,0,6.55,1.66,25.44,25.44,0,0,0,10.72-2,16.28,16.28,0,0,0,6.62-5.23Zm54.42-63.63a28.64,28.64,0,0,1,11.84,2.47,31.16,31.16,0,0,1,9.66,6.75,32.32,32.32,0,0,1,6.56,10,31.12,31.12,0,0,1,2.39,12.2v45.44H500.72V154.19a15.19,15.19,0,0,0-1.27-6.1,17,17,0,0,0-3.39-5.08,15.4,15.4,0,0,0-4.93-3.41,14.52,14.52,0,0,0-5.92-1.24,14.26,14.26,0,0,0-6.06,1.31,16.48,16.48,0,0,0-4.94,3.48,16.9,16.9,0,0,0-3.38,5.08,15.39,15.39,0,0,0-1.27,6.25v40.94H448.41V93.79h21.15v36.15a37.53,37.53,0,0,1,9.8-8.2A23.72,23.72,0,0,1,491.41,118.61Zm88.68,0a28.67,28.67,0,0,1,11.84,2.47,31.4,31.4,0,0,1,9.66,6.75,32.29,32.29,0,0,1,6.55,10,31,31,0,0,1,2.4,12.2v45.44H589.39V154.19a15,15,0,0,0-1.27-6.1,16.77,16.77,0,0,0-3.38-5.08,15.44,15.44,0,0,0-4.94-3.41,14.48,14.48,0,0,0-5.92-1.24,14.26,14.26,0,0,0-6.06,1.31,16.43,16.43,0,0,0-4.93,3.48,17.11,17.11,0,0,0-3.39,5.08,15.55,15.55,0,0,0-1.27,6.25v40.94H537.09v-73.9h21.14v8.42a37.7,37.7,0,0,1,9.8-8.2A23.78,23.78,0,0,1,580.09,118.61Zm82.33,0a38.59,38.59,0,0,1,15.72,3.2,39.33,39.33,0,0,1,12.54,8.64,40.25,40.25,0,0,1,8.32,12.7,39.55,39.55,0,0,1,3,15.39c0,1.07,0,2.18-.14,3.34s-.23,2.28-.42,3.34h-57.1a21.09,21.09,0,0,0,6.42,9.41,17.18,17.18,0,0,0,11.63,4,25.69,25.69,0,0,0,9.94-2,17.58,17.58,0,0,0,7.4-5.37L696.82,182a35.84,35.84,0,0,1-6.63,6.8,43.11,43.11,0,0,1-8.32,5.12,48.61,48.61,0,0,1-9.44,3.29,43.27,43.27,0,0,1-10,1.17,40.39,40.39,0,0,1-15.86-3.12,39.62,39.62,0,0,1-12.83-8.57,40.94,40.94,0,0,1-8.6-12.71,39.08,39.08,0,0,1,.07-31,40.36,40.36,0,0,1,8.74-12.7,41.36,41.36,0,0,1,12.83-8.49A39.55,39.55,0,0,1,662.42,118.61Zm0,19.75a16.91,16.91,0,0,0-10.79,3.49,22.4,22.4,0,0,0-6.69,8.42h35a21,21,0,0,0-6.63-8.42A17.18,17.18,0,0,0,662.42,138.36Zm130.12-16.84v73.9H771.39v-5.87a39.56,39.56,0,0,1-9.87,6.37,27.27,27.27,0,0,1-11.27,2.41,37.33,37.33,0,0,1-15.16-3.12,38,38,0,0,1-12.34-8.57,41,41,0,0,1-8.24-12.71,40.73,40.73,0,0,1,.07-31,40.1,40.1,0,0,1,8.39-12.7,39.58,39.58,0,0,1,12.33-8.49,36.53,36.53,0,0,1,15-3.13,27.26,27.26,0,0,1,11.27,2.4,42.14,42.14,0,0,1,9.87,6.17v-5.66Zm-40,57.06A18.42,18.42,0,0,0,760,177a20.48,20.48,0,0,0,6.28-4.27,19.77,19.77,0,0,0,4.23-6.36,20.83,20.83,0,0,0,0-15.77,19.82,19.82,0,0,0-4.23-6.37A20.84,20.84,0,0,0,760,140a18.42,18.42,0,0,0-7.54-1.59,18.73,18.73,0,0,0-7.68,1.59,20.47,20.47,0,0,0-6.21,32.77,19.59,19.59,0,0,0,6.21,4.27A18.73,18.73,0,0,0,752.5,178.58Zm98.07-60a36.38,36.38,0,0,1,14.91,3.13,39,39,0,0,1,20.6,21.19,40.5,40.5,0,0,1,3,15.61,39.48,39.48,0,0,1-3,15.39,41,41,0,0,1-8.22,12.71,38.16,38.16,0,0,1-12.24,8.57,36.71,36.71,0,0,1-15,3.12,27.15,27.15,0,0,1-11.25-2.41,41.94,41.94,0,0,1-10-6.37v42.17H808.19V121.52h21.14v5.66a41.44,41.44,0,0,1,9.92-6.17A27.63,27.63,0,0,1,850.57,118.61Zm-2.21,60a18.81,18.81,0,0,0,7.69-1.59,19.66,19.66,0,0,0,6.2-4.27,20.59,20.59,0,0,0,0-28.5,20,20,0,0,0-6.2-4.27,19.37,19.37,0,0,0-15.37,0,19.87,19.87,0,0,0-6.2,4.27,20.58,20.58,0,0,0,0,28.5,19.54,19.54,0,0,0,6.2,4.27A18.8,18.8,0,0,0,848.36,178.58Zm94.83-60a36.38,36.38,0,0,1,14.91,3.13,39,39,0,0,1,20.61,21.19,40.68,40.68,0,0,1,3,15.61,39.66,39.66,0,0,1-3,15.39,41,41,0,0,1-8.23,12.71,38.16,38.16,0,0,1-12.24,8.57,36.68,36.68,0,0,1-15,3.12,27.15,27.15,0,0,1-11.25-2.41,41.88,41.88,0,0,1-10-6.37v42.17H900.81V121.52H922v5.66a41.38,41.38,0,0,1,9.91-6.17A27.63,27.63,0,0,1,943.19,118.61Zm-2.2,60a18.8,18.8,0,0,0,7.68-1.59,19.54,19.54,0,0,0,6.2-4.27,20.59,20.59,0,0,0,0-28.5,19.87,19.87,0,0,0-6.2-4.27,19.37,19.37,0,0,0-15.37,0,20,20,0,0,0-6.2,4.27,20.58,20.58,0,0,0,0,28.5,19.66,19.66,0,0,0,6.2,4.27A18.81,18.81,0,0,0,941,178.58Z"/></clipPath><radialGradient id="radial-gradient-2" cx="-155.49" cy="-1071.2" fx="-678.4276241338902" fy="-1167.5278832937547" r="3030.08" gradientTransform="translate(806.34 2208.83) scale(1.64 1.97)" xlink:href="#radial-gradient"/></defs><rect class="cls-2" y="21.11" width="125.34" height="125.34" rx="34.99"/><rect class="cls-3" x="27.13" y="60.77" width="34.04" height="10.28"/><rect class="cls-3" x="46.48" y="82.22" width="10.28" height="34.04"/><rect class="cls-3" x="22.72" y="82.22" width="34.04" height="10.28"/><rect class="cls-3" x="22.72" y="60.77" width="10.28" height="31.72"/><rect class="cls-3" x="27.13" y="60.77" width="62.97" height="10.28"/><rect class="cls-3" x="68.96" y="82.22" width="10.28" height="34.04"/><rect class="cls-3" x="68.96" y="82.22" width="22.36" height="10.28"/><path class="cls-4" d="M151,118.56a9.23,9.23,0,1,1-9.23,9.23,9.23,9.23,0,0,1,9.23-9.23" transform="translate(-53.78 -61.43)"/><path class="cls-4" d="M127.88,174.11a9.23,9.23,0,1,1-9.24,9.23,9.23,9.23,0,0,1,9.24-9.23" transform="translate(-53.78 -61.43)"/><g class="cls-5"><path class="cls-6" d="M133,175.67a9.24,9.24,0,1,1-10.27,0v-32h22.35v10.27H133Zm61.12,8.71v19.73a27.06,27.06,0,0,1-27,27h-46L76.56,153.92h23.7v23.76h10.28v-34H86.78V132.47h56.28a9.23,9.23,0,0,0,16.71-7.61Z" transform="translate(-53.78 -61.43)"/></g><g class="cls-7"><rect class="cls-8" x="147.91" width="807.28" height="187.8"/></g></svg>